<svg xmlns="http://www.w3.org/2000/svg" viewBox="0 0 640 640"><path d="M164.5 141.1c-58.1 4.6-86 22.1-95.4 60.1-4.4 17.7-4.6 23.1-4.6 110.3 0 89.3.3 94.5 5.5 115 11.9 46.3 42 67.2 104.5 72.5 9 .8 57.3 1 156.5.7 152.4-.4 148.6-.3 170.5-5.1 38.1-8.3 59.7-29.5 68.5-67 5-21.6 5.3-26.6 5.7-103.6.6-93.4-.7-113.2-8.8-134-10.8-28.1-31.9-40.9-78.4-47.7-9.7-1.5-28.8-1.7-162-1.9-83-.1-155.9.2-162 .7m116.9 105c4.6 1.3 108.5 55 113.4 58.6 8.1 6.1 8.6 17.9 1 25-1.2 1.2-27 15.1-57.3 30.9-46.9 24.5-55.7 28.8-60 29.1-6.8.5-12.2-2.6-15.2-8.7l-2.3-4.4v-57.9c0-40.6.3-59.1 1.1-61.8 1.4-4.7 5.4-8.6 10.5-10.4 4.8-1.7 4.1-1.7 8.8-.4"/></svg>